<?xml version="1.0" encoding="UTF-8" standalone="no"?>
<!DOCTYPE svg PUBLIC "-//W3C//DTD SVG 1.1//EN" "http://www.w3.org/Graphics/SVG/1.1/DTD/svg11.dtd">
<svg xmlns="http://www.w3.org/2000/svg" version="1.1" viewBox="0.00 0.00 1443.00 1292.00">
<g stroke-width="2.00" fill="none" stroke-linecap="butt">
<path stroke="#d6b65f" vector-effect="non-scaling-stroke" d="
  M 1291.64 155.76
  Q 1287.57 149.83 1284.74 143.20
  A 0.30 0.30 0.0 0 0 1284.22 143.14
  C 1276.76 153.08 1276.35 166.58 1276.91 178.65
  Q 1277.28 186.79 1278.81 207.13
  Q 1279.67 218.57 1276.44 233.58"
/>
<path stroke="#e3c66a" vector-effect="non-scaling-stroke" d="
  M 1235.59 187.59
  C 1235.21 170.00 1235.48 151.09 1234.91 134.96
  C 1233.73 101.13 1233.52 67.30 1236.36 33.79
  Q 1237.42 21.19 1235.97 2.75"
/>
<path stroke="#ba9344" vector-effect="non-scaling-stroke" d="
  M 1408.91 269.21
  Q 1401.15 269.34 1393.12 266.71"
/>
<path stroke="#c7a451" vector-effect="non-scaling-stroke" d="
  M 1393.12 266.71
  Q 1378.21 262.21 1367.60 255.66
  Q 1359.25 250.51 1352.12 244.70
  Q 1346.16 239.84 1336.22 230.58
  C 1332.72 227.33 1329.48 222.89 1325.62 219.33
  A 2.66 2.62 9.4 0 1 1325.01 218.49
  Q 1323.93 216.18 1322.20 214.70
  A 0.24 0.10 67.5 0 1 1322.14 214.64
  L 1314.39 203.54
  A 0.29 0.29 0.0 0 0 1313.87 203.66
  Q 1310.95 221.70 1308.34 242.77
  Q 1307.23 251.74 1302.94 265.90"
/>
<path stroke="#e3c66a" vector-effect="non-scaling-stroke" d="
  M 1190.59 258.33
  Q 1185.98 240.32 1185.55 225.60
  Q 1184.91 202.90 1183.79 179.91"
/>
<path stroke="#b28a3c" vector-effect="non-scaling-stroke" d="
  M 1393.12 266.71
  C 1395.32 285.88 1397.00 302.45 1397.28 320.04"
/>
<path stroke="#ceac57" vector-effect="non-scaling-stroke" d="
  M 1298.35 415.47
  Q 1293.63 415.93 1291.98 412.28
  Q 1290.06 408.06 1289.53 401.10
  C 1288.05 381.88 1287.22 363.87 1283.60 343.71"
/>
<path stroke="#c7a44f" vector-effect="non-scaling-stroke" d="
  M 1434.15 277.36
  Q 1440.80 285.10 1440.75 294.52
  Q 1440.72 300.68 1437.12 307.49"
/>
<path stroke="#e3c66a" vector-effect="non-scaling-stroke" d="
  M 1191.70 330.74
  Q 1190.86 354.19 1190.50 377.55
  C 1190.22 396.03 1191.54 411.50 1193.75 430.74"
/>
<path stroke="#ceac57" vector-effect="non-scaling-stroke" d="
  M 1107.14 326.27
  C 1101.54 307.50 1100.73 289.60 1106.10 271.50
  Q 1107.89 265.48 1110.03 259.51"
/>
<path stroke="#e3c66a" vector-effect="non-scaling-stroke" d="
  M 1240.48 411.95
  Q 1238.79 436.10 1238.83 450.22
  C 1238.96 494.30 1240.67 539.80 1233.93 582.77"
/>
<path stroke="#c7a451" vector-effect="non-scaling-stroke" d="
  M 800.81 4.21
  L 799.30 4.39
  A 0.82 0.82 0.0 0 0 798.64 4.90
  Q 794.09 16.19 794.43 28.40
  Q 794.76 40.21 795.28 52.20"
/>
<path stroke="#ceac57" vector-effect="non-scaling-stroke" d="
  M 795.28 52.20
  C 772.91 50.32 750.64 49.74 728.23 50.56"
/>
<path stroke="#d3b45c" vector-effect="non-scaling-stroke" d="
  M 728.23 50.56
  Q 687.10 51.13 646.52 57.39"
/>
<path stroke="#c7a451" vector-effect="non-scaling-stroke" d="
  M 646.52 57.39
  C 654.41 43.01 661.41 21.91 646.09 9.03"
/>
<path stroke="#d3b45c" vector-effect="non-scaling-stroke" d="
  M 720.51 161.03
  C 676.85 196.44 637.76 237.22 603.55 281.80
  Q 597.46 289.74 591.83 298.09"
/>
<path stroke="#c7a451" vector-effect="non-scaling-stroke" d="
  M 800.02 161.53
  Q 796.10 147.67 796.81 133.34
  Q 797.49 119.75 798.31 105.84"
/>
<path stroke="#d6b65f" vector-effect="non-scaling-stroke" d="
  M 798.31 105.84
  L 815.35 94.92
  A 1.28 1.24 -7.7 0 0 815.86 94.27
  Q 822.48 75.41 821.56 55.57
  A 0.55 0.55 0.0 0 0 821.07 55.05
  L 795.28 52.20"
/>
<path stroke="#ceac57" vector-effect="non-scaling-stroke" d="
  M 798.31 105.84
  Q 791.56 109.95 785.15 114.15
  Q 751.75 136.03 720.51 161.03"
/>
<path stroke="#e3c66a" vector-effect="non-scaling-stroke" d="
  M 720.51 161.03
  Q 723.32 142.42 723.80 133.59
  Q 725.55 100.88 727.72 68.19
  C 728.10 62.39 728.10 56.44 728.23 50.56"
/>
<path stroke="#dcbe64" vector-effect="non-scaling-stroke" d="
  M 646.52 57.39
  Q 642.08 58.46 631.82 60.09
  Q 619.88 61.98 594.11 68.22"
/>
<path stroke="#d6b65f" vector-effect="non-scaling-stroke" d="
  M 594.11 68.22
  L 568.43 75.24
  A 0.62 0.61 -2.1 0 1 567.66 74.53
  Q 570.80 59.20 574.10 43.42
  Q 576.24 33.21 573.19 23.24"
/>
<path stroke="#ceac57" vector-effect="non-scaling-stroke" d="
  M 798.95 911.91
  C 789.28 927.65 785.53 943.32 797.71 958.80
  Q 798.90 960.31 803.43 965.01
  A 0.17 0.17 0.0 0 1 803.27 965.29
  L 801.48 964.81"
/>
<path stroke="#d3b45c" vector-effect="non-scaling-stroke" d="
  M 801.48 964.81
  Q 774.99 954.98 758.48 947.23
  Q 751.91 944.14 748.55 942.65
  Q 742.36 939.89 738.69 937.93
  Q 723.21 929.69 705.07 919.11
  Q 694.90 913.18 685.39 906.56
  Q 669.06 895.19 666.22 893.03
  Q 654.20 883.90 635.93 868.61
  C 628.19 862.13 619.69 853.47 612.69 846.57
  Q 604.40 838.42 591.45 823.21"
/>
<path stroke="#e3c66a" vector-effect="non-scaling-stroke" d="
  M 594.11 68.22
  C 590.18 77.74 586.59 88.39 586.05 98.56
  C 585.04 117.35 583.49 131.82 583.65 151.28
  C 583.72 160.91 582.19 184.04 582.92 200.43
  Q 583.59 215.53 586.03 254.21
  C 586.50 261.69 586.75 273.69 587.65 283.27
  Q 588.37 290.99 591.83 298.09"
/>
<path stroke="#ceac57" vector-effect="non-scaling-stroke" d="
  M 591.83 298.09
  Q 581.54 312.98 571.94 328.35
  C 560.49 346.67 550.55 366.29 541.90 384.40
  Q 531.39 406.44 521.96 433.96
  C 516.28 450.53 512.11 468.42 508.56 482.31
  C 507.70 485.66 507.51 488.99 506.79 492.29
  Q 505.69 497.28 505.31 499.74
  Q 501.28 525.80 499.78 550.50
  Q 498.34 574.23 500.11 600.55
  C 500.55 607.21 501.81 614.50 502.50 622.30
  Q 503.18 629.94 504.61 638.55
  Q 507.89 658.26 512.22 673.65
  Q 518.12 694.62 521.82 704.49
  Q 539.93 752.88 567.16 791.84
  Q 576.29 804.90 591.45 823.21"
/>
<path stroke="#e3c66a" vector-effect="non-scaling-stroke" d="
  M 591.45 823.21
  Q 589.58 846.49 587.92 869.75
  C 586.81 885.31 586.48 898.13 586.58 912.61
  Q 586.84 951.14 586.46 992.65
  C 586.29 1010.58 588.08 1039.15 588.34 1059.33
  Q 588.59 1078.97 589.04 1090.23
  C 589.64 1105.18 591.56 1124.75 591.89 1140.70
  C 592.34 1161.77 593.82 1186.47 596.16 1206.43
  Q 596.98 1213.36 599.42 1223.85
  A 0.77 0.76 89.4 0 0 600.01 1224.43
  L 633.01 1231.52"
/>
<path stroke="#d6b65f" vector-effect="non-scaling-stroke" d="
  M 633.01 1231.52
  Q 633.97 1240.62 633.64 1248.43
  C 633.19 1259.24 629.52 1268.87 624.70 1278.59"
/>
<path stroke="#e3c66a" vector-effect="non-scaling-stroke" d="
  M 520.26 1251.13
  Q 525.12 1238.91 526.61 1223.09
  Q 528.41 1204.08 528.38 1203.77
  A 0.96 0.78 -84.8 0 0 527.87 1203.01
  L 489.43 1187.20"
/>
<path stroke="#d6b65f" vector-effect="non-scaling-stroke" d="
  M 489.43 1187.20
  Q 490.52 1179.46 490.08 1172.96
  C 489.33 1161.88 488.91 1155.33 489.17 1146.31
  C 489.40 1138.25 489.48 1132.31 488.99 1125.62
  C 488.19 1114.56 487.03 1103.56 488.25 1092.63
  C 490.43 1073.17 492.08 1061.21 492.68 1045.38
  Q 494.10 1007.85 494.46 997.39
  C 494.66 991.53 494.63 982.17 494.23 974.91
  Q 493.26 957.21 493.61 941.01
  C 494.20 913.91 493.02 886.95 491.43 865.25
  Q 487.56 812.50 485.83 793.44
  C 484.05 773.83 484.30 756.07 485.80 736.30
  Q 486.47 727.55 486.54 713.98
  Q 486.66 692.48 484.66 670.90
  C 482.16 643.86 480.68 618.93 478.69 594.94
  C 477.23 577.46 477.49 562.60 476.36 546.84
  Q 475.36 532.91 475.45 513.54
  C 475.64 474.09 476.20 445.25 477.55 396.92
  Q 478.14 375.95 477.90 365.47
  C 477.49 347.98 476.58 330.97 475.14 311.25
  C 473.76 292.34 474.41 277.21 473.41 257.54
  C 472.45 238.87 472.89 219.67 471.96 200.51
  C 471.38 188.50 469.27 168.70 468.79 153.01
  C 468.37 139.67 468.22 127.80 467.52 115.13"
/>
<path stroke="#e3c66a" vector-effect="non-scaling-stroke" d="
  M 467.52 115.13
  L 483.02 107.43
  A 2.42 2.41 -7.7 0 0 484.31 105.74
  C 487.79 87.95 488.38 69.92 488.92 51.69"
/>
<path stroke="#e3c66a" vector-effect="non-scaling-stroke" d="
  M 801.48 964.81
  Q 803.75 978.64 802.20 994.69
  C 799.69 1020.51 796.93 1040.48 797.54 1061.64
  Q 799.61 1133.84 795.11 1208.03
  C 794.77 1213.61 794.46 1219.26 793.03 1224.03
  Q 790.38 1232.89 782.79 1241.00"
/>
<path stroke="#dcbe64" vector-effect="non-scaling-stroke" d="
  M 782.79 1241.00
  Q 770.13 1241.98 757.00 1242.13
  Q 705.73 1242.71 654.99 1235.29
  Q 647.77 1234.24 633.01 1231.52"
/>
<path stroke="#e3c66a" vector-effect="non-scaling-stroke" d="
  M 981.60 954.12
  Q 987.35 955.86 993.47 955.71
  Q 1002.45 955.48 1002.53 955.48
  Q 1011.51 955.83 1022.59 956.72
  C 1025.13 956.92 1027.96 957.77 1030.25 957.85
  Q 1048.15 958.53 1063.50 957.84
  Q 1064.82 957.78 1067.11 957.04
  A 3.73 3.41 -52.4 0 1 1068.02 956.88
  C 1075.68 956.53 1078.79 956.69 1086.03 955.78
  Q 1090.95 955.16 1098.28 955.91
  Q 1099.91 956.08 1100.78 954.38"
/>
<path stroke="#ceac57" vector-effect="non-scaling-stroke" d="
  M 1132.70 952.39
  C 1138.02 969.58 1140.27 984.83 1130.91 1001.21"
/>
<path stroke="#c6a250" vector-effect="non-scaling-stroke" d="
  M 1130.91 1001.21
  L 1095.96 1004.47"
/>
<path stroke="#ceac57" vector-effect="non-scaling-stroke" d="
  M 1095.96 1004.47
  Q 1086.29 1004.60 1076.64 1005.16
  C 1060.25 1006.09 1044.34 1006.28 1031.25 1005.90
  Q 1016.80 1005.48 986.25 1003.50
  Q 973.09 1002.64 942.97 998.65
  A 0.38 0.38 0.0 0 0 942.54 999.07
  Q 945.33 1023.18 946.09 1030.28
  C 947.87 1046.84 947.88 1060.09 946.46 1076.72
  Q 945.89 1083.36 941.69 1133.18
  C 940.14 1151.61 939.93 1169.92 937.81 1185.81
  Q 935.92 1199.89 930.16 1212.99
  A 0.30 0.29 -87.1 0 0 930.52 1213.39
  Q 949.43 1207.49 960.59 1203.29
  Q 986.92 1193.37 1013.06 1181.07
  Q 1048.67 1164.31 1087.47 1138.74"
/>
<path stroke="#c6a250" vector-effect="non-scaling-stroke" d="
  M 1087.47 1138.74
  Q 1105.40 1126.88 1122.22 1113.96"
/>
<path stroke="#ceac57" vector-effect="non-scaling-stroke" d="
  M 1122.22 1113.96
  Q 1127.57 1142.05 1125.38 1170.87"
/>
<path stroke="#d6b65f" vector-effect="non-scaling-stroke" d="
  M 812.97 1286.55
  Q 801.19 1275.81 798.35 1259.96
  Q 796.17 1247.85 795.34 1240.86
  A 0.53 0.52 84.8 0 0 794.79 1240.39
  L 782.79 1241.00"
/>
<path stroke="#dcbe64" vector-effect="non-scaling-stroke" d="
  M 467.52 115.13
  Q 440.65 128.72 431.00 134.76
  Q 418.93 142.32 406.82 149.82
  Q 404.04 151.54 401.47 153.43"
/>
<path stroke="#d3b45c" vector-effect="non-scaling-stroke" d="
  M 401.47 153.43
  L 373.79 173.01"
/>
<path stroke="#e3c66a" vector-effect="non-scaling-stroke" d="
  M 373.79 173.01
  C 366.84 155.14 365.48 137.44 365.97 118.48"
/>
<path stroke="#dcbe64" vector-effect="non-scaling-stroke" d="
  M 489.43 1187.20
  Q 472.35 1179.39 464.90 1175.58
  C 451.34 1168.65 433.34 1158.37 418.04 1148.80"
/>
<path stroke="#c7a451" vector-effect="non-scaling-stroke" d="
  M 418.04 1148.80
  Q 408.73 1119.47 409.84 1088.59
  Q 410.32 1075.28 411.71 1057.86
  Q 413.37 1037.15 413.26 1014.49
  C 413.14 988.86 413.55 978.85 413.37 951.18
  Q 413.18 921.37 412.64 912.16
  Q 411.19 887.31 411.06 867.70
  Q 411.01 858.71 412.66 791.21
  Q 413.02 776.31 411.94 763.22
  C 411.02 752.05 408.83 738.41 408.30 725.93
  Q 408.02 719.26 407.13 704.17
  C 406.54 694.15 404.91 683.91 403.81 674.36
  C 401.88 657.64 403.52 642.28 402.51 623.51
  C 401.61 606.75 399.56 590.12 396.92 565.65
  Q 394.95 547.33 394.92 535.94
  C 394.89 527.65 395.62 519.15 396.41 510.03
  C 397.68 495.10 397.55 477.30 397.42 465.08
  C 397.29 452.50 396.25 436.30 397.02 422.75
  C 397.80 409.01 398.30 402.48 398.24 391.46
  Q 398.24 390.43 398.04 371.20
  Q 397.99 366.32 399.51 346.23
  C 401.12 325.01 399.81 308.72 398.61 285.70
  C 397.57 265.77 398.17 239.39 397.95 220.29
  Q 397.74 201.97 397.66 184.27
  Q 397.58 168.62 401.47 153.43"
/>
<path stroke="#b69042" vector-effect="non-scaling-stroke" d="
  M 1227.01 1084.35
  C 1231.82 1067.77 1232.24 1051.24 1230.23 1034.26
  C 1229.48 1027.92 1227.81 1021.37 1221.01 1019.04
  A 0.68 0.67 -59.9 0 0 1220.28 1019.24
  Q 1186.39 1059.88 1146.15 1094.40
  Q 1137.47 1101.84 1122.22 1113.96"
/>
<path stroke="#b69042" vector-effect="non-scaling-stroke" d="
  M 1087.47 1138.74
  Q 1096.26 1100.08 1098.91 1078.79
  Q 1100.98 1062.23 1099.60 1050.78
  C 1097.75 1035.40 1094.98 1020.55 1095.96 1004.47"
/>
<path stroke="#b69042" vector-effect="non-scaling-stroke" d="
  M 1130.91 1001.21
  Q 1167.81 997.74 1203.73 989.56
  A 0.69 0.68 86.1 0 0 1204.26 988.94
  Q 1206.35 964.70 1196.87 942.22"
/>
<path stroke="#d3b45c" vector-effect="non-scaling-stroke" d="
  M 418.04 1148.80
  L 396.57 1135.22"
/>
<path stroke="#ceac57" vector-effect="non-scaling-stroke" d="
  M 396.57 1135.22
  C 388.62 1129.41 380.23 1123.83 372.72 1117.94
  Q 363.63 1110.80 354.51 1103.70
  Q 351.88 1101.65 349.27 1099.63"
/>
<path stroke="#c7a451" vector-effect="non-scaling-stroke" d="
  M 349.27 1099.63
  Q 326.41 1079.81 309.79 1063.71
  Q 296.47 1050.79 281.73 1033.57"
/>
<path stroke="#b69042" vector-effect="non-scaling-stroke" d="
  M 281.73 1033.57
  Q 280.72 1017.88 280.42 1002.33
  Q 280.14 987.26 281.19 977.90
  Q 283.85 954.05 284.25 949.69
  C 285.54 935.61 285.13 918.28 284.99 905.57
  Q 284.92 899.74 283.85 883.01
  Q 281.50 846.40 281.44 838.45
  Q 281.27 818.72 282.29 794.34
  Q 282.73 783.97 283.33 779.45
  C 286.23 757.61 289.67 736.95 287.84 715.78
  Q 286.28 697.70 281.43 661.60
  Q 280.15 652.06 279.78 646.40
  C 279.10 635.91 278.94 623.01 277.73 613.36
  Q 277.29 609.85 276.12 595.62
  Q 275.14 583.65 275.93 575.62
  Q 277.67 557.87 277.65 553.21
  Q 277.56 528.07 278.56 504.52
  C 279.45 483.46 277.10 464.90 276.77 445.04
  Q 276.57 433.56 276.41 421.95
  Q 276.38 419.87 276.16 417.34"
/>
<path stroke="#d3b45c" vector-effect="non-scaling-stroke" d="
  M 276.16 417.34
  Q 283.66 407.29 292.39 397.89
  Q 305.22 384.06 320.98 374.01"
/>
<path stroke="#ceac57" vector-effect="non-scaling-stroke" d="
  M 320.98 374.01
  Q 337.30 363.73 356.02 360.21
  C 362.17 359.05 369.64 359.17 375.02 358.23
  Q 384.58 356.56 391.58 349.10
  A 4.22 4.22 0.0 0 0 392.30 348.05
  C 397.79 336.70 396.07 320.23 383.92 313.88
  Q 379.28 311.46 372.61 310.87
  Q 346.04 308.51 322.66 295.57"
/>
<path stroke="#d3b45c" vector-effect="non-scaling-stroke" d="
  M 322.66 295.57
  L 316.55 291.87
  A 0.92 0.82 -3.0 0 1 316.34 291.70
  Q 314.95 290.36 312.45 288.87
  Q 311.14 288.09 308.66 286.11
  C 299.02 278.39 289.98 269.59 281.91 259.82"
/>
<path stroke="#ceac57" vector-effect="non-scaling-stroke" d="
  M 373.79 173.01
  Q 356.73 186.05 351.18 190.69
  Q 322.27 214.89 295.27 243.05
  Q 287.40 251.25 281.91 259.82"
/>
<path stroke="#e3c66a" vector-effect="non-scaling-stroke" d="
  M 281.91 259.82
  L 280.10 257.78
  A 4.28 3.97 10.9 0 1 279.58 257.07
  Q 277.37 253.27 270.25 243.32
  Q 263.15 233.40 255.31 216.95
  Q 255.04 216.40 255.10 215.60
  A 0.02 0.02 0.0 0 1 255.14 215.60
  Q 255.20 215.78 255.10 216.01
  A 0.13 0.13 0.0 0 1 254.86 215.98
  Q 254.61 214.86 253.95 213.90"
/>
<path stroke="#e3c66a" vector-effect="non-scaling-stroke" d="
  M 396.57 1135.22
  Q 392.15 1164.05 397.63 1192.97"
/>
<path stroke="#e3c66a" vector-effect="non-scaling-stroke" d="
  M 322.66 295.57
  C 325.50 321.96 323.95 347.72 320.98 374.01"
/>
<path stroke="#cbaa55" vector-effect="non-scaling-stroke" d="
  M 276.16 417.34
  C 270.19 425.46 264.90 434.27 260.07 443.10
  C 256.86 448.95 253.84 455.85 250.78 462.26"
/>
<path stroke="#e3c66a" vector-effect="non-scaling-stroke" d="
  M 250.78 462.26
  C 246.80 454.96 246.17 445.66 246.37 438.32
  C 247.06 414.07 247.51 397.64 245.35 376.02"
/>
<path stroke="#bf994a" vector-effect="non-scaling-stroke" d="
  M 281.73 1033.57
  Q 278.54 1030.37 275.76 1026.99
  Q 267.17 1016.59 258.73 1006.03"
/>
<path stroke="#b69042" vector-effect="non-scaling-stroke" d="
  M 258.73 1006.03
  C 254.28 1000.02 249.63 994.16 245.41 988.07
  C 228.19 963.23 212.95 939.65 199.19 913.51
  Q 196.52 908.46 194.22 903.36"
/>
<path stroke="#aa7f35" vector-effect="non-scaling-stroke" d="
  M 194.22 903.36
  Q 196.31 893.52 195.82 882.59
  Q 195.25 869.71 194.57 845.73
  C 193.89 821.99 192.56 804.60 191.19 781.24
  C 189.85 758.32 189.64 741.38 188.85 712.53
  C 188.44 697.46 187.23 684.24 186.33 669.65
  C 185.35 653.55 186.22 636.28 198.78 625.28"
/>
<path stroke="#d6b65f" vector-effect="non-scaling-stroke" d="
  M 349.27 1099.63
  C 346.63 1121.25 348.97 1141.95 352.52 1163.35"
/>
<path stroke="#c6a250" vector-effect="non-scaling-stroke" d="
  M 250.78 462.26
  Q 240.59 486.30 234.07 511.60
  C 232.89 516.19 232.43 520.83 231.22 525.38
  Q 230.50 528.05 229.13 535.72
  Q 228.10 541.48 227.23 547.24
  Q 223.14 574.12 222.92 601.25
  Q 222.80 615.49 210.73 622.24
  Q 205.37 625.24 198.78 625.28"
/>
<path stroke="#c19c4a" vector-effect="non-scaling-stroke" d="
  M 198.78 625.28
  L 192.30 624.53"
/>
<path stroke="#e3c66a" vector-effect="non-scaling-stroke" d="
  M 234.44 156.97
  Q 230.35 172.86 230.48 191.56
  Q 230.63 214.86 231.43 227.05
  C 232.55 244.22 234.12 260.84 234.47 278.55"
/>
<path stroke="#ceac57" vector-effect="non-scaling-stroke" d="
  M 158.29 283.79
  Q 151.14 264.02 152.86 241.69
  C 154.53 220.00 156.37 204.73 155.18 183.27"
/>
<path stroke="#c7a451" vector-effect="non-scaling-stroke" d="
  M 258.73 1006.03
  C 252.87 1028.31 252.25 1051.59 253.56 1074.50"
/>
<path stroke="#b28a3c" vector-effect="non-scaling-stroke" d="
  M 194.22 903.36
  L 183.76 881.41
  A 0.17 0.16 -55.5 0 0 183.45 881.47
  L 173.68 967.31"
/>
<path stroke="#d6b65f" vector-effect="non-scaling-stroke" d="
  M 199.43 456.70
  Q 194.12 471.71 192.64 491.34
  Q 190.94 513.96 191.10 526.64
  Q 191.57 563.60 191.18 600.56
  Q 191.11 607.56 192.30 624.53"
/>
<path stroke="#ba9344" vector-effect="non-scaling-stroke" d="
  M 192.30 624.53
  C 182.91 622.02 175.03 613.78 174.79 603.73
  C 174.21 579.73 172.01 555.28 167.16 531.53
  Q 164.97 520.76 163.61 514.67
  C 162.58 510.02 161.51 506.91 160.67 503.19
  Q 159.69 498.88 158.37 494.62
  Q 152.08 474.39 143.22 454.97"
/>
<path stroke="#c7a451" vector-effect="non-scaling-stroke" d="
  M 150.48 374.42
  Q 150.42 394.52 150.10 406.78
  Q 149.47 430.88 143.22 454.97"
/>
<path stroke="#b28a3c" vector-effect="non-scaling-stroke" d="
  M 143.22 454.97
  Q 137.60 442.57 129.72 429.03
  Q 127.79 425.72 125.86 425.72"
/>
<path stroke="#b28a3c" vector-effect="non-scaling-stroke" d="
  M 80.51 376.63
  Q 77.30 354.86 78.25 337.43
  C 79.21 320.04 79.84 307.82 78.53 293.41"
/>
<path stroke="#d3b45c" vector-effect="non-scaling-stroke" d="
  M 78.53 293.41
  Q 89.80 286.25 99.12 276.48"
/>
<path stroke="#d3b45c" vector-effect="non-scaling-stroke" d="
  M 118.53 254.85
  Q 123.59 252.08 124.81 245.77"
/>
<path stroke="#c7a44f" vector-effect="non-scaling-stroke" d="
  M 78.53 293.41
  Q 66.63 300.94 53.27 305.04"
/>
<path stroke="#ceac57" vector-effect="non-scaling-stroke" d="
  M 993.43 630.89
  Q 992.28 659.45 988.29 687.60"
/>
<path stroke="#ceac57" vector-effect="non-scaling-stroke" d="
  M 897.20 688.49
  C 893.10 668.72 891.85 650.02 894.63 629.88"
/>
<path stroke="#c7a451" vector-effect="non-scaling-stroke" d="
  M 887.83 752.68
  C 884.42 775.07 884.87 796.78 885.84 820.01"
/>
<path stroke="#b28a3c" vector-effect="non-scaling-stroke" d="
  M 860.98 799.05
  Q 861.30 759.88 861.19 720.87
  Q 861.12 696.81 860.20 672.76
  Q 859.89 664.91 859.70 657.02"
/>
<path stroke="#d3b45c" vector-effect="non-scaling-stroke" d="
  M 968.86 832.78
  L 965.77 782.70"
/>
<path stroke="#dcbe64" vector-effect="non-scaling-stroke" d="
  M 928.72 785.97
  L 928.46 835.78"
/>
<path stroke="#d6b65f" vector-effect="non-scaling-stroke" d="
  M 1325.78 1100.88
  Q 1327.42 1126.35 1324.22 1151.54"
/>
<path stroke="#ceac57" vector-effect="non-scaling-stroke" d="
  M 1269.80 1161.37
  Q 1266.04 1133.86 1264.79 1106.46"
/>
<path stroke="#c7a451" vector-effect="non-scaling-stroke" d="
  M 1348.76 1110.01
  Q 1348.06 1141.12 1345.76 1172.30"
/>
<path stroke="#ceac57" vector-effect="non-scaling-stroke" d="
  M 1278.08 1234.47
  Q 1276.05 1260.44 1277.48 1286.55"
/>
<path stroke="#b69042" vector-effect="non-scaling-stroke" d="
  M 1238.22 1265.28
  Q 1238.36 1254.13 1238.61 1243.60
  Q 1239.31 1213.90 1240.33 1184.21
  Q 1240.97 1165.77 1239.41 1123.00"
/>
<path stroke="#ceac57" vector-effect="non-scaling-stroke" d="
  M 1345.99 1280.91
  Q 1349.26 1249.24 1345.57 1217.67"
/>
</g>
<path fill="#ddbe65" d="
  M 1291.64 155.76
  Q 1287.57 149.83 1284.74 143.20
  A 0.30 0.30 0.0 0 0 1284.22 143.14
  C 1276.76 153.08 1276.35 166.58 1276.91 178.65
  Q 1277.28 186.79 1278.81 207.13
  Q 1279.67 218.57 1276.44 233.58
  C 1270.84 225.33 1265.69 216.63 1261.02 208.77
  C 1256.47 201.11 1252.53 191.25 1249.10 184.84
  A 8.90 8.65 -66.3 0 1 1248.31 182.73
  Q 1246.81 176.46 1242.92 170.72
  A 0.57 0.57 0.0 0 0 1241.92 170.84
  L 1235.59 187.59
  C 1235.21 170.00 1235.48 151.09 1234.91 134.96
  C 1233.73 101.13 1233.52 67.30 1236.36 33.79
  Q 1237.42 21.19 1235.97 2.75
  L 1241.45 1.70
  A 5.13 4.97 -45.9 0 1 1243.09 1.65
  L 1252.25 2.93
  A 8.38 8.33 66.5 0 1 1255.97 4.41
  Q 1261.16 8.14 1264.96 15.04
  Q 1266.40 17.66 1267.00 21.50
  Q 1267.92 27.36 1267.87 28.25
  Q 1267.41 36.01 1269.79 65.25
  Q 1271.95 91.97 1280.15 121.12
  Q 1285.77 141.11 1291.64 155.76
  Z"
/>
<path fill="#be9a48" d="
  M 800.81 4.21
  L 799.30 4.39
  A 0.82 0.82 0.0 0 0 798.64 4.90
  Q 794.09 16.19 794.43 28.40
  Q 794.76 40.21 795.28 52.20
  C 772.91 50.32 750.64 49.74 728.23 50.56
  Q 687.10 51.13 646.52 57.39
  C 654.41 43.01 661.41 21.91 646.09 9.03
  C 654.35 7.58 662.81 6.08 670.85 5.63
  C 680.83 5.06 689.76 3.93 700.73 3.39
  Q 750.77 0.93 800.81 4.21
  Z"
/>
<path fill="#e8ce6f" d="
  M 1235.97 2.75
  Q 1237.42 21.19 1236.36 33.79
  C 1233.52 67.30 1233.73 101.13 1234.91 134.96
  C 1235.48 151.09 1235.21 170.00 1235.59 187.59
  Q 1231.09 198.56 1225.16 208.96
  Q 1223.80 211.36 1218.56 221.06
  Q 1215.28 227.13 1211.25 232.75
  Q 1201.62 246.13 1190.59 258.33
  Q 1185.98 240.32 1185.55 225.60
  Q 1184.91 202.90 1183.79 179.91
  C 1185.59 176.31 1187.38 172.80 1188.89 168.99
  C 1192.44 160.01 1196.38 150.71 1199.98 141.13
  Q 1201.07 138.22 1201.67 135.65
  C 1203.56 127.45 1204.69 122.44 1206.80 115.60
  C 1210.15 104.78 1212.94 92.83 1214.17 80.79
  Q 1214.86 74.01 1217.56 52.88
  C 1218.54 45.23 1218.67 37.65 1219.09 30.29
  C 1219.45 23.96 1219.96 16.04 1223.11 10.98
  A 2.92 2.92 0.0 0 1 1224.05 10.04
  L 1235.97 2.75
  Z"
/>
<path fill="#cfad59" d="
  M 800.81 4.21
  Q 816.92 5.01 822.76 5.96
  Q 838.48 8.52 851.11 10.34
  C 867.80 12.76 884.62 15.77 897.28 18.98
  C 916.43 23.84 936.21 28.47 952.54 34.70
  C 959.18 37.23 965.64 42.35 967.66 49.64
  Q 972.31 66.38 958.42 76.42
  Q 953.89 79.70 949.45 81.55
  C 941.21 84.96 933.22 89.02 925.47 91.99
  C 919.53 94.27 914.89 96.99 909.38 99.25
  Q 907.50 100.02 901.65 102.95
  C 881.22 113.21 862.67 122.35 850.13 129.89
  Q 839.46 136.31 836.48 137.99
  Q 836.44 138.02 811.35 153.59
  Q 808.20 155.54 800.02 161.53
  Q 796.10 147.67 796.81 133.34
  Q 797.49 119.75 798.31 105.84
  L 815.35 94.92
  A 1.28 1.24 -7.7 0 0 815.86 94.27
  Q 822.48 75.41 821.56 55.57
  A 0.55 0.55 0.0 0 0 821.07 55.05
  L 795.28 52.20
  Q 794.76 40.21 794.43 28.40
  Q 794.09 16.19 798.64 4.90
  A 0.82 0.82 0.0 0 1 799.30 4.39
  L 800.81 4.21
  Z"
/>
<path fill="#cfad59" d="
  M 646.09 9.03
  C 661.41 21.91 654.41 43.01 646.52 57.39
  Q 642.08 58.46 631.82 60.09
  Q 619.88 61.98 594.11 68.22
  L 568.43 75.24
  A 0.62 0.61 -2.1 0 1 567.66 74.53
  Q 570.80 59.20 574.10 43.42
  Q 576.24 33.21 573.19 23.24
  Q 587.78 19.12 600.50 16.77
  Q 614.02 14.28 622.81 12.33
  Q 631.70 10.37 646.09 9.03
  Z"
/>
<path fill="#ddbe65" d="
  M 573.19 23.24
  Q 576.24 33.21 574.10 43.42
  Q 570.80 59.20 567.66 74.53
  A 0.62 0.61 -2.1 0 0 568.43 75.24
  L 594.11 68.22
  C 590.18 77.74 586.59 88.39 586.05 98.56
  C 585.04 117.35 583.49 131.82 583.65 151.28
  C 583.72 160.91 582.19 184.04 582.92 200.43
  Q 583.59 215.53 586.03 254.21
  C 586.50 261.69 586.75 273.69 587.65 283.27
  Q 588.37 290.99 591.83 298.09
  Q 581.54 312.98 571.94 328.35
  C 560.49 346.67 550.55 366.29 541.90 384.40
  Q 531.39 406.44 521.96 433.96
  C 516.28 450.53 512.11 468.42 508.56 482.31
  C 507.70 485.66 507.51 488.99 506.79 492.29
  Q 505.69 497.28 505.31 499.74
  Q 501.28 525.80 499.78 550.50
  Q 498.34 574.23 500.11 600.55
  C 500.55 607.21 501.81 614.50 502.50 622.30
  Q 503.18 629.94 504.61 638.55
  Q 507.89 658.26 512.22 673.65
  Q 518.12 694.62 521.82 704.49
  Q 539.93 752.88 567.16 791.84
  Q 576.29 804.90 591.45 823.21
  Q 589.58 846.49 587.92 869.75
  C 586.81 885.31 586.48 898.13 586.58 912.61
  Q 586.84 951.14 586.46 992.65
  C 586.29 1010.58 588.08 1039.15 588.34 1059.33
  Q 588.59 1078.97 589.04 1090.23
  C 589.64 1105.18 591.56 1124.75 591.89 1140.70
  C 592.34 1161.77 593.82 1186.47 596.16 1206.43
  Q 596.98 1213.36 599.42 1223.85
  A 0.77 0.76 89.4 0 0 600.01 1224.43
  L 633.01 1231.52
  Q 633.97 1240.62 633.64 1248.43
  C 633.19 1259.24 629.52 1268.87 624.70 1278.59
  Q 607.10 1275.24 589.68 1270.92
  Q 582.93 1269.25 569.84 1266.22
  C 552.58 1262.22 536.70 1256.21 520.26 1251.13
  Q 525.12 1238.91 526.61 1223.09
  Q 528.41 1204.08 528.38 1203.77
  A 0.96 0.78 -84.8 0 0 527.87 1203.01
  L 489.43 1187.20
  Q 490.52 1179.46 490.08 1172.96
  C 489.33 1161.88 488.91 1155.33 489.17 1146.31
  C 489.40 1138.25 489.48 1132.31 488.99 1125.62
  C 488.19 1114.56 487.03 1103.56 488.25 1092.63
  C 490.43 1073.17 492.08 1061.21 492.68 1045.38
  Q 494.10 1007.85 494.46 997.39
  C 494.66 991.53 494.63 982.17 494.23 974.91
  Q 493.26 957.21 493.61 941.01
  C 494.20 913.91 493.02 886.95 491.43 865.25
  Q 487.56 812.50 485.83 793.44
  C 484.05 773.83 484.30 756.07 485.80 736.30
  Q 486.47 727.55 486.54 713.98
  Q 486.66 692.48 484.66 670.90
  C 482.16 643.86 480.68 618.93 478.69 594.94
  C 477.23 577.46 477.49 562.60 476.36 546.84
  Q 475.36 532.91 475.45 513.54
  C 475.64 474.09 476.20 445.25 477.55 396.92
  Q 478.14 375.95 477.90 365.47
  C 477.49 347.98 476.58 330.97 475.14 311.25
  C 473.76 292.34 474.41 277.21 473.41 257.54
  C 472.45 238.87 472.89 219.67 471.96 200.51
  C 471.38 188.50 469.27 168.70 468.79 153.01
  C 468.37 139.67 468.22 127.80 467.52 115.13
  L 483.02 107.43
  A 2.42 2.41 -7.7 0 0 484.31 105.74
  C 487.79 87.95 488.38 69.92 488.92 51.69
  Q 494.33 49.35 499.93 47.23
  Q 530.07 35.83 538.55 33.31
  Q 555.84 28.17 573.19 23.24
  Z"
/>
<path fill="#ddbe65" d="
  M 234.44 156.97
  Q 230.35 172.86 230.48 191.56
  Q 230.63 214.86 231.43 227.05
  C 232.55 244.22 234.12 260.84 234.47 278.55
  Q 226.82 267.85 224.01 263.23
  Q 211.86 243.25 202.91 221.72
  C 201.85 219.19 201.59 216.50 200.14 213.99
  Q 199.34 212.63 199.29 211.65
  A 0.32 0.32 0.0 0 0 198.75 211.44
  Q 198.74 211.45 197.61 213.16
  Q 196.88 214.26 196.43 215.35
  Q 194.06 221.16 190.36 230.00
  Q 178.13 259.15 158.29 283.79
  Q 151.14 264.02 152.86 241.69
  C 154.53 220.00 156.37 204.73 155.18 183.27
  Q 166.68 148.06 171.23 115.74
  Q 173.65 98.60 173.95 73.33
  C 173.99 70.06 174.39 66.85 174.63 63.91
  C 175.55 52.85 183.23 45.10 193.56 42.38
  C 202.52 40.02 212.36 44.90 218.51 51.58
  A 4.94 4.84 -78.6 0 1 219.44 53.01
  Q 222.87 60.99 223.02 69.26
  Q 223.44 91.13 225.58 111.24
  Q 227.77 131.83 234.44 156.97
  Z"
/>
<path fill="#ddbe65" d="
  M 795.28 52.20
  L 821.07 55.05
  A 0.55 0.55 0.0 0 1 821.56 55.57
  Q 822.48 75.41 815.86 94.27
  A 1.28 1.24 -7.7 0 1 815.35 94.92
  L 798.31 105.84
  Q 791.56 109.95 785.15 114.15
  Q 751.75 136.03 720.51 161.03
  Q 723.32 142.42 723.80 133.59
  Q 725.55 100.88 727.72 68.19
  C 728.10 62.39 728.10 56.44 728.23 50.56
  C 750.64 49.74 772.91 50.32 795.28 52.20
  Z"
/>
<path fill="#e8ce6f" d="
  M 728.23 50.56
  C 728.10 56.44 728.10 62.39 727.72 68.19
  Q 725.55 100.88 723.80 133.59
  Q 723.32 142.42 720.51 161.03
  C 676.85 196.44 637.76 237.22 603.55 281.80
  Q 597.46 289.74 591.83 298.09
  Q 588.37 290.99 587.65 283.27
  C 586.75 273.69 586.50 261.69 586.03 254.21
  Q 583.59 215.53 582.92 200.43
  C 582.19 184.04 583.72 160.91 583.65 151.28
  C 583.49 131.82 585.04 117.35 586.05 98.56
  C 586.59 88.39 590.18 77.74 594.11 68.22
  Q 619.88 61.98 631.82 60.09
  Q 642.08 58.46 646.52 57.39
  Q 687.10 51.13 728.23 50.56
  Z"
/>
<path fill="#e8ce6f" d="
  M 488.92 51.69
  C 488.38 69.92 487.79 87.95 484.31 105.74
  A 2.42 2.41 -7.7 0 1 483.02 107.43
  L 467.52 115.13
  Q 440.65 128.72 431.00 134.76
  Q 418.93 142.32 406.82 149.82
  Q 404.04 151.54 401.47 153.43
  L 373.79 173.01
  C 366.84 155.14 365.48 137.44 365.97 118.48
  Q 372.49 113.99 379.13 109.60
  C 387.50 104.06 396.67 99.13 404.01 94.72
  Q 411.86 90.02 415.25 87.95
  C 431.30 78.20 449.40 69.83 465.12 61.87
  Q 471.36 58.72 488.92 51.69
  Z"
/>
<path fill="#be9a48" d="
  M 798.31 105.84
  Q 797.49 119.75 796.81 133.34
  Q 796.10 147.67 800.02 161.53
  Q 798.07 163.10 796.06 164.54
  Q 774.24 180.07 761.35 190.34
  Q 759.79 191.58 741.20 207.02
  Q 729.32 216.90 721.59 224.32
  Q 694.07 250.76 680.99 265.24
  Q 662.94 285.22 646.88 306.12
  C 644.69 308.96 642.38 312.89 640.28 315.55
  Q 627.32 331.93 613.10 355.83
  Q 607.70 364.90 605.75 369.01
  C 602.62 375.59 598.98 379.72 595.76 386.34
  C 591.88 394.31 586.39 404.93 583.01 413.62
  Q 580.60 419.80 576.43 429.20
  C 572.12 438.90 568.43 450.89 564.72 462.23
  C 561.42 472.31 559.57 483.06 557.01 491.95
  Q 554.46 500.84 552.88 511.13
  Q 549.50 533.14 548.31 555.26
  C 546.37 591.58 551.06 628.46 560.50 663.79
  Q 565.46 682.34 572.08 698.20
  Q 575.44 706.25 581.92 720.20
  Q 585.51 727.93 587.38 731.20
  C 590.22 736.18 592.18 740.76 595.33 745.54
  Q 608.51 765.57 611.58 769.91
  Q 632.22 799.11 657.10 822.41
  Q 667.91 832.54 687.84 848.37
  Q 693.50 852.87 696.64 854.91
  C 700.78 857.60 703.92 860.45 708.73 863.68
  Q 746.98 889.39 779.57 903.42
  Q 794.50 909.85 798.95 911.91
  C 789.28 927.65 785.53 943.32 797.71 958.80
  Q 798.90 960.31 803.43 965.01
  A 0.17 0.17 0.0 0 1 803.27 965.29
  L 801.48 964.81
  Q 774.99 954.98 758.48 947.23
  Q 751.91 944.14 748.55 942.65
  Q 742.36 939.89 738.69 937.93
  Q 723.21 929.69 705.07 919.11
  Q 694.90 913.18 685.39 906.56
  Q 669.06 895.19 666.22 893.03
  Q 654.20 883.90 635.93 868.61
  C 628.19 862.13 619.69 853.47 612.69 846.57
  Q 604.40 838.42 591.45 823.21
  Q 576.29 804.90 567.16 791.84
  Q 539.93 752.88 521.82 704.49
  Q 518.12 694.62 512.22 673.65
  Q 507.89 658.26 504.61 638.55
  Q 503.18 629.94 502.50 622.30
  C 501.81 614.50 500.55 607.21 500.11 600.55
  Q 498.34 574.23 499.78 550.50
  Q 501.28 525.80 505.31 499.74
  Q 505.69 497.28 506.79 492.29
  C 507.51 488.99 507.70 485.66 508.56 482.31
  C 512.11 468.42 516.28 450.53 521.96 433.96
  Q 531.39 406.44 541.90 384.40
  C 550.55 366.29 560.49 346.67 571.94 328.35
  Q 581.54 312.98 591.83 298.09
  Q 597.46 289.74 603.55 281.80
  C 637.76 237.22 676.85 196.44 720.51 161.03
  Q 751.75 136.03 785.15 114.15
  Q 791.56 109.95 798.31 105.84
  Z"
/>
<path fill="#cfad59" d="
  M 467.52 115.13
  C 468.22 127.80 468.37 139.67 468.79 153.01
  C 469.27 168.70 471.38 188.50 471.96 200.51
  C 472.89 219.67 472.45 238.87 473.41 257.54
  C 474.41 277.21 473.76 292.34 475.14 311.25
  C 476.58 330.97 477.49 347.98 477.90 365.47
  Q 478.14 375.95 477.55 396.92
  C 476.20 445.25 475.64 474.09 475.45 513.54
  Q 475.36 532.91 476.36 546.84
  C 477.49 562.60 477.23 577.46 478.69 594.94
  C 480.68 618.93 482.16 643.86 484.66 670.90
  Q 486.66 692.48 486.54 713.98
  Q 486.47 727.55 485.80 736.30
  C 484.30 756.07 484.05 773.83 485.83 793.44
  Q 487.56 812.50 491.43 865.25
  C 493.02 886.95 494.20 913.91 493.61 941.01
  Q 493.26 957.21 494.23 974.91
  C 494.63 982.17 494.66 991.53 494.46 997.39
  Q 494.10 1007.85 492.68 1045.38
  C 492.08 1061.21 490.43 1073.17 488.25 1092.63
  C 487.03 1103.56 488.19 1114.56 488.99 1125.62
  C 489.48 1132.31 489.40 1138.25 489.17 1146.31
  C 488.91 1155.33 489.33 1161.88 490.08 1172.96
  Q 490.52 1179.46 489.43 1187.20
  Q 472.35 1179.39 464.90 1175.58
  C 451.34 1168.65 433.34 1158.37 418.04 1148.80
  Q 408.73 1119.47 409.84 1088.59
  Q 410.32 1075.28 411.71 1057.86
  Q 413.37 1037.15 413.26 1014.49
  C 413.14 988.86 413.55 978.85 413.37 951.18
  Q 413.18 921.37 412.64 912.16
  Q 411.19 887.31 411.06 867.70
  Q 411.01 858.71 412.66 791.21
  Q 413.02 776.31 411.94 763.22
  C 411.02 752.05 408.83 738.41 408.30 725.93
  Q 408.02 719.26 407.13 704.17
  C 406.54 694.15 404.91 683.91 403.81 674.36
  C 401.88 657.64 403.52 642.28 402.51 623.51
  C 401.61 606.75 399.56 590.12 396.92 565.65
  Q 394.95 547.33 394.92 535.94
  C 394.89 527.65 395.62 519.15 396.41 510.03
  C 397.68 495.10 397.55 477.30 397.42 465.08
  C 397.29 452.50 396.25 436.30 397.02 422.75
  C 397.80 409.01 398.30 402.48 398.24 391.46
  Q 398.24 390.43 398.04 371.20
  Q 397.99 366.32 399.51 346.23
  C 401.12 325.01 399.81 308.72 398.61 285.70
  C 397.57 265.77 398.17 239.39 397.95 220.29
  Q 397.74 201.97 397.66 184.27
  Q 397.58 168.62 401.47 153.43
  Q 404.04 151.54 406.82 149.82
  Q 418.93 142.32 431.00 134.76
  Q 440.65 128.72 467.52 115.13
  Z"
/>
<path fill="#ddbe65" d="
  M 365.97 118.48
  C 365.48 137.44 366.84 155.14 373.79 173.01
  Q 356.73 186.05 351.18 190.69
  Q 322.27 214.89 295.27 243.05
  Q 287.40 251.25 281.91 259.82
  L 280.10 257.78
  A 4.28 3.97 10.9 0 1 279.58 257.07
  Q 277.37 253.27 270.25 243.32
  Q 263.15 233.40 255.31 216.95
  Q 255.04 216.40 255.10 215.60
  A 0.02 0.02 0.0 0 1 255.14 215.60
  Q 255.20 215.78 255.10 216.01
  A 0.13 0.13 0.0 0 1 254.86 215.98
  Q 254.61 214.86 253.95 213.90
  Q 257.69 211.70 260.53 208.70
  Q 264.55 204.44 264.59 204.40
  C 273.32 196.21 281.51 187.37 290.93 179.02
  C 303.82 167.61 310.49 161.26 321.37 152.39
  Q 343.06 134.69 365.97 118.48
  Z"
/>
<path fill="#cfad59" d="
  M 1291.64 155.76
  C 1300.00 176.98 1310.83 197.74 1324.65 215.72
  C 1328.17 220.30 1331.53 223.62 1334.98 227.89
  Q 1336.32 229.54 1339.14 232.33
  Q 1350.38 243.42 1366.06 253.68
  Q 1373.26 258.39 1379.90 261.06
  Q 1393.74 266.65 1408.91 269.21
  Q 1401.15 269.34 1393.12 266.71
  Q 1378.21 262.21 1367.60 255.66
  Q 1359.25 250.51 1352.12 244.70
  Q 1346.16 239.84 1336.22 230.58
  C 1332.72 227.33 1329.48 222.89 1325.62 219.33
  A 2.66 2.62 9.4 0 1 1325.01 218.49
  Q 1323.93 216.18 1322.20 214.70
  A 0.24 0.10 67.5 0 1 1322.14 214.64
  L 1314.39 203.54
  A 0.29 0.29 0.0 0 0 1313.87 203.66
  Q 1310.95 221.70 1308.34 242.77
  Q 1307.23 251.74 1302.94 265.90
  C 1294.37 257.71 1287.06 247.78 1279.80 238.43
  Q 1277.97 236.07 1276.44 233.58
  Q 1279.67 218.57 1278.81 207.13
  Q 1277.28 186.79 1276.91 178.65
  C 1276.35 166.58 1276.76 153.08 1284.22 143.14
  A 0.30 0.30 0.0 0 1 1284.74 143.20
  Q 1287.57 149.83 1291.64 155.76
  Z"
/>
<path fill="#be9a48" d="
  M 401.47 153.43
  Q 397.58 168.62 397.66 184.27
  Q 397.74 201.97 397.95 220.29
  C 398.17 239.39 397.57 265.77 398.61 285.70
  C 399.81 308.72 401.12 325.01 399.51 346.23
  Q 397.99 366.32 398.04 371.20
  Q 398.24 390.43 398.24 391.46
  C 398.30 402.48 397.80 409.01 397.02 422.75
  C 396.25 436.30 397.29 452.50 397.42 465.08
  C 397.55 477.30 397.68 495.10 396.41 510.03
  C 395.62 519.15 394.89 527.65 394.92 535.94
  Q 394.95 547.33 396.92 565.65
  C 399.56 590.12 401.61 606.75 402.51 623.51
  C 403.52 642.28 401.88 657.64 403.81 674.36
  C 404.91 683.91 406.54 694.15 407.13 704.17
  Q 408.02 719.26 408.30 725.93
  C 408.83 738.41 411.02 752.05 411.94 763.22
  Q 413.02 776.31 412.66 791.21
  Q 411.01 858.71 411.06 867.70
  Q 411.19 887.31 412.64 912.16
  Q 413.18 921.37 413.37 951.18
  C 413.55 978.85 413.14 988.86 413.26 1014.49
  Q 413.37 1037.15 411.71 1057.86
  Q 410.32 1075.28 409.84 1088.59
  Q 408.73 1119.47 418.04 1148.80
  L 396.57 1135.22
  C 388.62 1129.41 380.23 1123.83 372.72 1117.94
  Q 363.63 1110.80 354.51 1103.70
  Q 351.88 1101.65 349.27 1099.63
  Q 326.41 1079.81 309.79 1063.71
  Q 296.47 1050.79 281.73 1033.57
  Q 280.72 1017.88 280.42 1002.33
  Q 280.14 987.26 281.19 977.90
  Q 283.85 954.05 284.25 949.69
  C 285.54 935.61 285.13 918.28 284.99 905.57
  Q 284.92 899.74 283.85 883.01
  Q 281.50 846.40 281.44 838.45
  Q 281.27 818.72 282.29 794.34
  Q 282.73 783.97 283.33 779.45
  C 286.23 757.61 289.67 736.95 287.84 715.78
  Q 286.28 697.70 281.43 661.60
  Q 280.15 652.06 279.78 646.40
  C 279.10 635.91 278.94 623.01 277.73 613.36
  Q 277.29 609.85 276.12 595.62
  Q 275.14 583.65 275.93 575.62
  Q 277.67 557.87 277.65 553.21
  Q 277.56 528.07 278.56 504.52
  C 279.45 483.46 277.10 464.90 276.77 445.04
  Q 276.57 433.56 276.41 421.95
  Q 276.38 419.87 276.16 417.34
  Q 283.66 407.29 292.39 397.89
  Q 305.22 384.06 320.98 374.01
  Q 337.30 363.73 356.02 360.21
  C 362.17 359.05 369.64 359.17 375.02 358.23
  Q 384.58 356.56 391.58 349.10
  A 4.22 4.22 0.0 0 0 392.30 348.05
  C 397.79 336.70 396.07 320.23 383.92 313.88
  Q 379.28 311.46 372.61 310.87
  Q 346.04 308.51 322.66 295.57
  L 316.55 291.87
  A 0.92 0.82 -3.0 0 1 316.34 291.70
  Q 314.95 290.36 312.45 288.87
  Q 311.14 288.09 308.66 286.11
  C 299.02 278.39 289.98 269.59 281.91 259.82
  Q 287.40 251.25 295.27 243.05
  Q 322.27 214.89 351.18 190.69
  Q 356.73 186.05 373.79 173.01
  L 401.47 153.43
  Z"
/>
<path fill="#e8ce6f" d="
  M 234.44 156.97
  C 238.71 171.06 242.71 185.41 248.24 199.07
  C 250.09 203.63 251.80 209.01 253.95 213.90
  Q 254.61 214.86 254.86 215.98
  A 0.13 0.13 0.0 0 0 255.10 216.01
  Q 255.20 215.78 255.14 215.60
  A 0.02 0.02 0.0 0 0 255.10 215.60
  Q 255.04 216.40 255.31 216.95
  Q 263.15 233.40 270.25 243.32
  Q 277.37 253.27 279.58 257.07
  A 4.28 3.97 10.9 0 0 280.10 257.78
  L 281.91 259.82
  C 289.98 269.59 299.02 278.39 308.66 286.11
  Q 311.14 288.09 312.45 288.87
  Q 314.95 290.36 316.34 291.70
  A 0.92 0.82 -3.0 0 0 316.55 291.87
  L 322.66 295.57
  C 325.50 321.96 323.95 347.72 320.98 374.01
  Q 305.22 384.06 292.39 397.89
  Q 283.66 407.29 276.16 417.34
  C 270.19 425.46 264.90 434.27 260.07 443.10
  C 256.86 448.95 253.84 455.85 250.78 462.26
  C 246.80 454.96 246.17 445.66 246.37 438.32
  C 247.06 414.07 247.51 397.64 245.35 376.02
  Q 249.01 372.16 252.91 368.16
  Q 257.32 363.63 261.76 359.16
  C 268.25 352.62 275.15 347.51 281.92 341.68
  Q 285.73 338.39 291.07 336.24
  A 0.47 0.47 0.0 0 0 291.26 335.50
  C 289.31 333.10 287.69 331.10 285.11 329.33
  C 281.62 326.92 278.64 323.58 275.23 320.95
  Q 266.56 314.24 256.74 304.64
  C 249.13 297.21 241.62 287.44 234.47 278.55
  C 234.12 260.84 232.55 244.22 231.43 227.05
  Q 230.63 214.86 230.48 191.56
  Q 230.35 172.86 234.44 156.97
  Z"
/>
<path fill="#ddbe65" d="
  M 1183.79 179.91
  Q 1184.91 202.90 1185.55 225.60
  Q 1185.98 240.32 1190.59 258.33
  Q 1185.44 263.84 1179.97 268.96
  Q 1165.76 282.28 1151.80 292.83
  A 1.02 1.02 0.0 0 0 1151.74 294.41
  C 1156.36 298.43 1161.55 301.52 1166.32 305.99
  Q 1169.96 309.40 1176.69 314.55
  Q 1180.87 317.75 1191.70 330.74
  Q 1190.86 354.19 1190.50 377.55
  C 1190.22 396.03 1191.54 411.50 1193.75 430.74
  Q 1191.64 425.03 1189.62 419.33
  Q 1184.47 404.75 1176.52 393.45
  Q 1162.08 372.90 1159.40 369.51
  C 1153.73 362.34 1148.64 356.35 1140.79 349.62
  Q 1126.25 337.13 1123.60 335.13
  Q 1116.97 330.14 1107.14 326.27
  C 1101.54 307.50 1100.73 289.60 1106.10 271.50
  Q 1107.89 265.48 1110.03 259.51
  Q 1127.95 249.90 1140.32 238.58
  Q 1143.18 235.95 1153.46 225.04
  C 1166.09 211.62 1175.00 195.66 1183.79 179.91
  Z"
/>
<path fill="#be9a48" d="
  M 155.18 183.27
  C 156.37 204.73 154.53 220.00 152.86 241.69
  Q 151.14 264.02 158.29 283.79
  C 154.85 288.15 151.50 292.94 147.87 296.73
  Q 137.47 307.59 134.27 310.52
  C 126.03 318.08 115.64 325.70 109.17 330.62
  A 0.80 0.75 88.4 0 0 109.00 330.81
  L 105.99 335.47
  A 0.51 0.51 0.0 0 0 106.18 336.20
  Q 110.03 338.19 113.58 340.67
  Q 128.20 350.90 141.07 363.68
  Q 144.35 366.94 150.48 374.42
  Q 150.42 394.52 150.10 406.78
  Q 149.47 430.88 143.22 454.97
  Q 137.60 442.57 129.72 429.03
  Q 127.79 425.72 125.86 425.72
  Q 123.45 421.03 122.35 419.40
  Q 109.98 401.16 93.52 386.48
  Q 91.00 384.23 80.51 376.63
  Q 77.30 354.86 78.25 337.43
  C 79.21 320.04 79.84 307.82 78.53 293.41
  Q 89.80 286.25 99.12 276.48
  L 118.53 254.85
  Q 123.59 252.08 124.81 245.77
  Q 130.45 237.23 135.51 227.53
  Q 146.75 205.97 155.18 183.27
  Z"
/>
<path fill="#be9a48" d="
  M 1393.12 266.71
  C 1395.32 285.88 1397.00 302.45 1397.28 320.04
  C 1382.09 323.96 1366.57 332.13 1353.92 342.22
  Q 1333.83 358.26 1320.02 377.77
  Q 1307.99 394.77 1298.35 415.47
  Q 1293.63 415.93 1291.98 412.28
  Q 1290.06 408.06 1289.53 401.10
  C 1288.05 381.88 1287.22 363.87 1283.60 343.71
  Q 1285.22 341.45 1287.10 339.35
  Q 1294.46 331.12 1301.83 323.17
  Q 1306.36 318.29 1310.23 314.90
  C 1314.25 311.37 1317.74 307.67 1322.05 304.53
  Q 1325.92 301.70 1335.93 294.26
  A 0.47 0.46 -43.9 0 0 1335.95 293.53
  Q 1325.73 285.26 1315.79 277.45
  Q 1308.93 272.06 1302.94 265.90
  Q 1307.23 251.74 1308.34 242.77
  Q 1310.95 221.70 1313.87 203.66
  A 0.29 0.29 0.0 0 1 1314.39 203.54
  L 1322.14 214.64
  A 0.24 0.10 67.5 0 0 1322.20 214.70
  Q 1323.93 216.18 1325.01 218.49
  A 2.66 2.62 9.4 0 0 1325.62 219.33
  C 1329.48 222.89 1332.72 227.33 1336.22 230.58
  Q 1346.16 239.84 1352.12 244.70
  Q 1359.25 250.51 1367.60 255.66
  Q 1378.21 262.21 1393.12 266.71
  Z"
/>
<path fill="#e8ce6f" d="
  M 118.53 254.85
  L 124.81 245.77
  Q 123.59 252.08 118.53 254.85
  Z"
/>
<path fill="#be9a48" d="
  M 1110.03 259.51
  Q 1107.89 265.48 1106.10 271.50
  C 1100.73 289.60 1101.54 307.50 1107.14 326.27
  C 1095.68 321.48 1087.67 319.30 1077.68 318.39
  C 1066.02 317.32 1056.56 317.12 1049.00 307.03
  Q 1048.04 305.75 1046.18 299.80
  Q 1043.61 291.58 1047.47 283.19
  Q 1049.33 279.15 1051.51 277.27
  C 1056.06 273.32 1059.91 270.66 1066.01 270.30
  Q 1072.22 269.93 1076.64 269.23
  Q 1093.96 266.50 1110.03 259.51
  Z"
/>
<path fill="#a5792f" d="
  M 1408.91 269.21
  Q 1413.52 269.56 1418.45 270.01
  Q 1427.85 270.87 1434.15 277.36
  Q 1440.80 285.10 1440.75 294.52
  Q 1440.72 300.68 1437.12 307.49
  Q 1433.63 312.47 1427.79 315.00
  Q 1424.41 316.46 1415.98 317.45
  Q 1406.60 318.55 1397.28 320.04
  C 1397.00 302.45 1395.32 285.88 1393.12 266.71
  Q 1401.15 269.34 1408.91 269.21
  Z"
/>
<path fill="#e8ce6f" d="
  M 99.12 276.48
  Q 89.80 286.25 78.53 293.41
  Q 66.63 300.94 53.27 305.04
  Q 55.28 304.01 62.47 300.91
  Q 78.04 294.21 89.84 284.14
  Q 96.78 278.22 99.12 276.48
  Z"
/>
<path fill="#e8ce6f" d="
  M 1437.12 307.49
  Q 1440.72 300.68 1440.75 294.52
  Q 1440.80 285.10 1434.15 277.36
  Q 1441.97 284.02 1441.75 295.00
  Q 1441.61 301.74 1437.12 307.49
  Z"
/>
<path fill="#a5792f" d="
  M 80.51 376.63
  C 77.23 374.25 73.86 371.72 70.43 369.99
  Q 58.30 363.88 45.37 360.46
  C 38.53 358.65 31.49 358.51 23.25 357.53
  C 15.47 356.61 8.68 353.94 4.50 346.80
  C -0.08 338.97 -0.88 329.19 4.51 321.66
  C 8.08 316.68 13.15 312.35 19.68 311.42
  Q 25.99 310.52 29.24 310.14
  Q 41.54 308.68 53.27 305.04
  Q 66.63 300.94 78.53 293.41
  C 79.84 307.82 79.21 320.04 78.25 337.43
  Q 77.30 354.86 80.51 376.63
  Z"
/>
<path fill="#ddbe65" d="
  M 320.98 374.01
  C 323.95 347.72 325.50 321.96 322.66 295.57
  Q 346.04 308.51 372.61 310.87
  Q 379.28 311.46 383.92 313.88
  C 396.07 320.23 397.79 336.70 392.30 348.05
  A 4.22 4.22 0.0 0 1 391.58 349.10
  Q 384.58 356.56 375.02 358.23
  C 369.64 359.17 362.17 359.05 356.02 360.21
  Q 337.30 363.73 320.98 374.01
  Z"
/>
<path fill="#e8ce6f" d="
  M 1240.48 411.95
  Q 1238.79 436.10 1238.83 450.22
  C 1238.96 494.30 1240.67 539.80 1233.93 582.77
  C 1221.75 578.74 1219.54 569.75 1219.00 557.59
  C 1218.54 547.13 1217.81 536.05 1216.08 523.97
  Q 1214.86 515.47 1213.46 504.26
  C 1213.23 502.42 1212.29 498.87 1211.95 496.54
  Q 1208.87 475.39 1202.54 455.14
  C 1200.30 447.98 1196.65 438.86 1193.75 430.74
  C 1191.54 411.50 1190.22 396.03 1190.50 377.55
  Q 1190.86 354.19 1191.70 330.74
  Q 1204.34 344.71 1214.65 360.31
  C 1219.22 367.24 1223.11 374.44 1227.05 381.66
  Q 1233.29 393.10 1239.41 408.10
  Q 1239.76 408.96 1240.48 411.95
  Z"
/>
<path fill="#ddbe65" d="
  M 1298.35 415.47
  Q 1288.24 436.45 1281.35 462.06
  Q 1273.68 490.59 1271.08 511.18
  C 1269.98 519.84 1269.78 527.99 1268.93 535.78
  C 1268.11 543.30 1268.17 550.30 1267.94 561.69
  Q 1267.89 564.34 1266.13 569.52
  Q 1262.24 580.98 1250.18 584.16
  Q 1241.73 586.38 1233.93 582.77
  C 1240.67 539.80 1238.96 494.30 1238.83 450.22
  Q 1238.79 436.10 1240.48 411.95
  L 1241.74 414.73
  A 0.64 0.64 0.0 0 0 1242.87 414.78
  C 1244.66 411.68 1245.65 410.35 1247.18 406.73
  Q 1255.96 385.98 1259.91 379.13
  C 1261.39 376.57 1263.38 374.00 1264.94 371.24
  Q 1273.14 356.73 1283.60 343.71
  C 1287.22 363.87 1288.05 381.88 1289.53 401.10
  Q 1290.06 408.06 1291.98 412.28
  Q 1293.63 415.93 1298.35 415.47
  Z"
/>
<path fill="#cfad59" d="
  M 199.43 456.70
  Q 194.12 471.71 192.64 491.34
  Q 190.94 513.96 191.10 526.64
  Q 191.57 563.60 191.18 600.56
  Q 191.11 607.56 192.30 624.53
  C 182.91 622.02 175.03 613.78 174.79 603.73
  C 174.21 579.73 172.01 555.28 167.16 531.53
  Q 164.97 520.76 163.61 514.67
  C 162.58 510.02 161.51 506.91 160.67 503.19
  Q 159.69 498.88 158.37 494.62
  Q 152.08 474.39 143.22 454.97
  Q 149.47 430.88 150.10 406.78
  Q 150.42 394.52 150.48 374.42
  Q 163.36 389.00 173.86 406.36
  Q 184.53 424.01 192.05 441.37
  C 193.62 444.99 194.35 448.69 195.79 451.84
  A 5.48 5.46 -76.5 0 0 196.46 452.94
  L 199.43 456.70
  Z"
/>
<path fill="#ddbe65" d="
  M 245.35 376.02
  C 247.51 397.64 247.06 414.07 246.37 438.32
  C 246.17 445.66 246.80 454.96 250.78 462.26
  Q 240.59 486.30 234.07 511.60
  C 232.89 516.19 232.43 520.83 231.22 525.38
  Q 230.50 528.05 229.13 535.72
  Q 228.10 541.48 227.23 547.24
  Q 223.14 574.12 222.92 601.25
  Q 222.80 615.49 210.73 622.24
  Q 205.37 625.24 198.78 625.28
  L 192.30 624.53
  Q 191.11 607.56 191.18 600.56
  Q 191.57 563.60 191.10 526.64
  Q 190.94 513.96 192.64 491.34
  Q 194.12 471.71 199.43 456.70
  C 201.56 452.60 203.21 447.31 204.60 444.10
  Q 220.38 407.48 245.35 376.02
  Z"
/>
<path fill="#ae853b" d="
  M 281.73 1033.57
  Q 278.54 1030.37 275.76 1026.99
  Q 267.17 1016.59 258.73 1006.03
  C 254.28 1000.02 249.63 994.16 245.41 988.07
  C 228.19 963.23 212.95 939.65 199.19 913.51
  Q 196.52 908.46 194.22 903.36
  Q 196.31 893.52 195.82 882.59
  Q 195.25 869.71 194.57 845.73
  C 193.89 821.99 192.56 804.60 191.19 781.24
  C 189.85 758.32 189.64 741.38 188.85 712.53
  C 188.44 697.46 187.23 684.24 186.33 669.65
  C 185.35 653.55 186.22 636.28 198.78 625.28
  Q 205.37 625.24 210.73 622.24
  Q 222.80 615.49 222.92 601.25
  Q 223.14 574.12 227.23 547.24
  Q 228.10 541.48 229.13 535.72
  Q 230.50 528.05 231.22 525.38
  C 232.43 520.83 232.89 516.19 234.07 511.60
  Q 240.59 486.30 250.78 462.26
  C 253.84 455.85 256.86 448.95 260.07 443.10
  C 264.90 434.27 270.19 425.46 276.16 417.34
  Q 276.38 419.87 276.41 421.95
  Q 276.57 433.56 276.77 445.04
  C 277.10 464.90 279.45 483.46 278.56 504.52
  Q 277.56 528.07 277.65 553.21
  Q 277.67 557.87 275.93 575.62
  Q 275.14 583.65 276.12 595.62
  Q 277.29 609.85 277.73 613.36
  C 278.94 623.01 279.10 635.91 279.78 646.40
  Q 280.15 652.06 281.43 661.60
  Q 286.28 697.70 287.84 715.78
  C 289.67 736.95 286.23 757.61 283.33 779.45
  Q 282.73 783.97 282.29 794.34
  Q 281.27 818.72 281.44 838.45
  Q 281.50 846.40 283.85 883.01
  Q 284.92 899.74 284.99 905.57
  C 285.13 918.28 285.54 935.61 284.25 949.69
  Q 283.85 954.05 281.19 977.90
  Q 280.14 987.26 280.42 1002.33
  Q 280.72 1017.88 281.73 1033.57
  Z"
/>
<path fill="#a5792f" d="
  M 143.22 454.97
  Q 152.08 474.39 158.37 494.62
  Q 159.69 498.88 160.67 503.19
  C 161.51 506.91 162.58 510.02 163.61 514.67
  Q 164.97 520.76 167.16 531.53
  C 172.01 555.28 174.21 579.73 174.79 603.73
  C 175.03 613.78 182.91 622.02 192.30 624.53
  L 198.78 625.28
  C 186.22 636.28 185.35 653.55 186.33 669.65
  C 187.23 684.24 188.44 697.46 188.85 712.53
  C 189.64 741.38 189.85 758.32 191.19 781.24
  C 192.56 804.60 193.89 821.99 194.57 845.73
  Q 195.25 869.71 195.82 882.59
  Q 196.31 893.52 194.22 903.36
  L 183.76 881.41
  A 0.17 0.16 -55.5 0 0 183.45 881.47
  L 173.68 967.31
  Q 163.84 951.15 153.02 929.26
  C 136.78 896.42 122.81 863.65 113.14 830.65
  Q 113.13 830.61 107.25 809.98
  Q 104.04 798.73 101.98 789.15
  Q 96.03 761.48 92.83 741.99
  Q 91.28 732.54 89.44 713.68
  Q 87.53 694.14 86.31 681.75
  Q 85.80 676.54 85.15 648.53
  C 84.97 640.83 85.67 633.60 85.96 626.43
  Q 86.33 617.19 87.00 611.11
  C 87.70 604.64 87.59 598.22 88.34 590.66
  C 89.41 579.96 89.96 576.58 90.76 566.99
  C 91.44 558.92 93.02 550.72 94.29 542.70
  Q 95.18 537.03 96.79 529.60
  Q 100.11 514.25 103.32 498.81
  C 104.40 493.62 106.52 487.38 107.96 481.84
  Q 115.40 453.24 125.86 425.72
  Q 127.79 425.72 129.72 429.03
  Q 137.60 442.57 143.22 454.97
  Z"
/>
<path fill="#ddbe65" d="
  M 993.43 630.89
  Q 992.28 659.45 988.29 687.60
  C 981.69 681.07 974.90 675.35 965.87 671.65
  Q 953.79 666.69 942.53 667.02
  Q 924.08 667.56 908.98 677.70
  Q 905.03 680.36 897.20 688.49
  C 893.10 668.72 891.85 650.02 894.63 629.88
  C 906.50 624.63 919.17 620.39 931.96 619.31
  C 953.32 617.50 973.99 621.88 993.43 630.89
  Z"
/>
<path fill="#be9a48" d="
  M 894.63 629.88
  C 891.85 650.02 893.10 668.72 897.20 688.49
  Q 876.61 713.65 884.84 745.42
  Q 885.52 748.03 887.83 752.68
  C 884.42 775.07 884.87 796.78 885.84 820.01
  Q 871.48 811.65 860.98 799.05
  Q 861.30 759.88 861.19 720.87
  Q 861.12 696.81 860.20 672.76
  Q 859.89 664.91 859.70 657.02
  Q 874.23 639.80 894.63 629.88
  Z"
/>
<path fill="#be9a48" d="
  M 993.43 630.89
  C 1012.59 640.84 1026.87 655.71 1037.65 674.14
  C 1045.17 686.99 1050.11 702.59 1051.71 717.74
  Q 1053.40 733.82 1050.01 749.29
  C 1046.22 766.56 1038.92 780.98 1028.24 795.32
  Q 1022.83 802.60 1016.42 807.92
  Q 1010.54 812.82 1002.57 818.37
  C 994.88 823.73 985.12 827.85 976.55 830.81
  Q 972.80 832.10 968.86 832.78
  L 965.77 782.70
  Q 993.99 770.56 1001.40 741.85
  C 1006.42 722.40 1000.46 703.26 988.29 687.60
  Q 992.28 659.45 993.43 630.89
  Z"
/>
<path fill="#a5792f" d="
  M 859.70 657.02
  Q 859.89 664.91 860.20 672.76
  Q 861.12 696.81 861.19 720.87
  Q 861.30 759.88 860.98 799.05
  Q 848.84 785.38 841.36 766.67
  Q 837.24 756.37 836.46 753.03
  Q 829.16 721.73 839.46 691.68
  Q 840.30 689.21 843.35 682.31
  C 847.35 673.26 853.56 664.73 859.70 657.02
  Z"
/>
<path fill="#cfad59" d="
  M 887.83 752.68
  Q 900.98 778.22 928.72 785.97
  L 928.46 835.78
  Q 905.61 831.81 885.84 820.01
  C 884.87 796.78 884.42 775.07 887.83 752.68
  Z"
/>
<path fill="#e8ce6f" d="
  M 965.77 782.70
  L 968.86 832.78
  C 962.00 834.50 955.16 836.24 948.17 836.49
  C 942.06 836.71 934.60 837.04 928.46 835.78
  L 928.72 785.97
  Q 940.29 788.08 946.25 787.71
  Q 953.93 787.23 965.77 782.70
  Z"
/>
<path fill="#e8ce6f" d="
  M 591.45 823.21
  Q 604.40 838.42 612.69 846.57
  C 619.69 853.47 628.19 862.13 635.93 868.61
  Q 654.20 883.90 666.22 893.03
  Q 669.06 895.19 685.39 906.56
  Q 694.90 913.18 705.07 919.11
  Q 723.21 929.69 738.69 937.93
  Q 742.36 939.89 748.55 942.65
  Q 751.91 944.14 758.48 947.23
  Q 774.99 954.98 801.48 964.81
  Q 803.75 978.64 802.20 994.69
  C 799.69 1020.51 796.93 1040.48 797.54 1061.64
  Q 799.61 1133.84 795.11 1208.03
  C 794.77 1213.61 794.46 1219.26 793.03 1224.03
  Q 790.38 1232.89 782.79 1241.00
  Q 770.13 1241.98 757.00 1242.13
  Q 705.73 1242.71 654.99 1235.29
  Q 647.77 1234.24 633.01 1231.52
  L 600.01 1224.43
  A 0.77 0.76 89.4 0 1 599.42 1223.85
  Q 596.98 1213.36 596.16 1206.43
  C 593.82 1186.47 592.34 1161.77 591.89 1140.70
  C 591.56 1124.75 589.64 1105.18 589.04 1090.23
  Q 588.59 1078.97 588.34 1059.33
  C 588.08 1039.15 586.29 1010.58 586.46 992.65
  Q 586.84 951.14 586.58 912.61
  C 586.48 898.13 586.81 885.31 587.92 869.75
  Q 589.58 846.49 591.45 823.21
  Z"
/>
<path fill="#be9a48" d="
  M 194.22 903.36
  Q 196.52 908.46 199.19 913.51
  C 212.95 939.65 228.19 963.23 245.41 988.07
  C 249.63 994.16 254.28 1000.02 258.73 1006.03
  C 252.87 1028.31 252.25 1051.59 253.56 1074.50
  C 242.70 1062.66 231.66 1050.54 222.13 1038.09
  C 213.39 1026.67 208.90 1021.20 201.79 1010.93
  Q 191.85 996.58 180.27 978.03
  Q 176.95 972.71 173.68 967.31
  L 183.45 881.47
  A 0.17 0.16 -55.5 0 1 183.76 881.41
  L 194.22 903.36
  Z"
/>
<path fill="#ddbe65" d="
  M 981.60 954.12
  Q 987.35 955.86 993.47 955.71
  Q 1002.45 955.48 1002.53 955.48
  Q 1011.51 955.83 1022.59 956.72
  C 1025.13 956.92 1027.96 957.77 1030.25 957.85
  Q 1048.15 958.53 1063.50 957.84
  Q 1064.82 957.78 1067.11 957.04
  A 3.73 3.41 -52.4 0 1 1068.02 956.88
  C 1075.68 956.53 1078.79 956.69 1086.03 955.78
  Q 1090.95 955.16 1098.28 955.91
  Q 1099.91 956.08 1100.78 954.38
  L 1132.70 952.39
  C 1138.02 969.58 1140.27 984.83 1130.91 1001.21
  L 1095.96 1004.47
  Q 1086.29 1004.60 1076.64 1005.16
  C 1060.25 1006.09 1044.34 1006.28 1031.25 1005.90
  Q 1016.80 1005.48 986.25 1003.50
  Q 973.09 1002.64 942.97 998.65
  A 0.38 0.38 0.0 0 0 942.54 999.07
  Q 945.33 1023.18 946.09 1030.28
  C 947.87 1046.84 947.88 1060.09 946.46 1076.72
  Q 945.89 1083.36 941.69 1133.18
  C 940.14 1151.61 939.93 1169.92 937.81 1185.81
  Q 935.92 1199.89 930.16 1212.99
  A 0.30 0.29 -87.1 0 0 930.52 1213.39
  Q 949.43 1207.49 960.59 1203.29
  Q 986.92 1193.37 1013.06 1181.07
  Q 1048.67 1164.31 1087.47 1138.74
  Q 1105.40 1126.88 1122.22 1113.96
  Q 1127.57 1142.05 1125.38 1170.87
  Q 1112.90 1180.01 1101.27 1187.01
  Q 1085.07 1196.74 1084.14 1197.30
  Q 1043.03 1221.75 1001.54 1238.75
  Q 992.42 1242.49 992.22 1242.59
  Q 987.75 1244.82 983.68 1246.05
  C 976.89 1248.10 969.35 1251.54 963.56 1253.24
  C 958.12 1254.83 953.61 1257.13 948.23 1258.51
  C 941.17 1260.33 934.51 1263.02 927.89 1264.69
  C 923.09 1265.90 918.08 1267.61 912.60 1268.88
  C 899.67 1271.89 876.96 1277.41 858.83 1280.42
  Q 837.43 1283.98 835.27 1284.28
  Q 829.07 1285.16 812.97 1286.55
  Q 801.19 1275.81 798.35 1259.96
  Q 796.17 1247.85 795.34 1240.86
  A 0.53 0.52 84.8 0 0 794.79 1240.39
  L 782.79 1241.00
  Q 790.38 1232.89 793.03 1224.03
  C 794.46 1219.26 794.77 1213.61 795.11 1208.03
  Q 799.61 1133.84 797.54 1061.64
  C 796.93 1040.48 799.69 1020.51 802.20 994.69
  Q 803.75 978.64 801.48 964.81
  L 803.27 965.29
  A 0.17 0.17 0.0 0 0 803.43 965.01
  Q 798.90 960.31 797.71 958.80
  C 785.53 943.32 789.28 927.65 798.95 911.91
  C 801.60 913.17 804.65 914.65 807.22 915.44
  C 816.02 918.13 823.88 921.82 832.80 924.55
  Q 861.35 933.31 868.31 934.95
  Q 910.81 944.97 927.42 947.88
  Q 949.19 951.68 981.60 954.12
  Z"
/>
<path fill="#ae853b" d="
  M 1227.01 1084.35
  C 1231.82 1067.77 1232.24 1051.24 1230.23 1034.26
  C 1229.48 1027.92 1227.81 1021.37 1221.01 1019.04
  A 0.68 0.67 -59.9 0 0 1220.28 1019.24
  Q 1186.39 1059.88 1146.15 1094.40
  Q 1137.47 1101.84 1122.22 1113.96
  Q 1105.40 1126.88 1087.47 1138.74
  Q 1096.26 1100.08 1098.91 1078.79
  Q 1100.98 1062.23 1099.60 1050.78
  C 1097.75 1035.40 1094.98 1020.55 1095.96 1004.47
  L 1130.91 1001.21
  Q 1167.81 997.74 1203.73 989.56
  A 0.69 0.68 86.1 0 0 1204.26 988.94
  Q 1206.35 964.70 1196.87 942.22
  C 1209.05 939.41 1221.76 936.70 1233.21 933.47
  Q 1253.05 927.87 1268.69 923.19
  Q 1273.70 921.69 1279.68 919.12
  C 1284.76 916.95 1290.83 914.92 1294.59 913.87
  Q 1302.70 911.62 1311.10 913.12
  C 1316.75 914.13 1321.15 919.02 1324.66 923.24
  C 1329.08 928.56 1329.51 938.28 1327.49 944.47
  Q 1327.03 945.87 1322.28 954.46
  Q 1311.42 974.08 1307.15 980.65
  Q 1289.51 1007.77 1280.46 1020.22
  Q 1270.15 1034.40 1257.50 1049.75
  C 1255.10 1052.65 1252.51 1055.38 1250.56 1057.79
  Q 1239.45 1071.53 1227.01 1084.35
  Z"
/>
<path fill="#be9a48" d="
  M 1196.87 942.22
  Q 1206.35 964.70 1204.26 988.94
  A 0.69 0.68 86.1 0 1 1203.73 989.56
  Q 1167.81 997.74 1130.91 1001.21
  C 1140.27 984.83 1138.02 969.58 1132.70 952.39
  Q 1165.22 949.27 1196.87 942.22
  Z"
/>
<path fill="#e8ce6f" d="
  M 1100.78 954.38
  Q 1099.91 956.08 1098.28 955.91
  Q 1090.95 955.16 1086.03 955.78
  C 1078.79 956.69 1075.68 956.53 1068.02 956.88
  A 3.73 3.41 -52.4 0 0 1067.11 957.04
  Q 1064.82 957.78 1063.50 957.84
  Q 1048.15 958.53 1030.25 957.85
  C 1027.96 957.77 1025.13 956.92 1022.59 956.72
  Q 1011.51 955.83 1002.53 955.48
  Q 1002.45 955.48 993.47 955.71
  Q 987.35 955.86 981.60 954.12
  C 989.04 953.84 996.52 953.37 1003.80 953.53
  Q 1028.99 954.08 1034.97 954.05
  C 1047.71 953.97 1056.22 954.58 1067.34 954.36
  C 1073.38 954.25 1089.60 954.00 1100.78 954.38
  Z"
/>
<path fill="#be9a48" d="
  M 1095.96 1004.47
  C 1094.98 1020.55 1097.75 1035.40 1099.60 1050.78
  Q 1100.98 1062.23 1098.91 1078.79
  Q 1096.26 1100.08 1087.47 1138.74
  Q 1048.67 1164.31 1013.06 1181.07
  Q 986.92 1193.37 960.59 1203.29
  Q 949.43 1207.49 930.52 1213.39
  A 0.30 0.29 -87.1 0 1 930.16 1212.99
  Q 935.92 1199.89 937.81 1185.81
  C 939.93 1169.92 940.14 1151.61 941.69 1133.18
  Q 945.89 1083.36 946.46 1076.72
  C 947.88 1060.09 947.87 1046.84 946.09 1030.28
  Q 945.33 1023.18 942.54 999.07
  A 0.38 0.38 0.0 0 1 942.97 998.65
  Q 973.09 1002.64 986.25 1003.50
  Q 1016.80 1005.48 1031.25 1005.90
  C 1044.34 1006.28 1060.25 1006.09 1076.64 1005.16
  Q 1086.29 1004.60 1095.96 1004.47
  Z"
/>
<path fill="#cfad59" d="
  M 258.73 1006.03
  Q 267.17 1016.59 275.76 1026.99
  Q 278.54 1030.37 281.73 1033.57
  Q 296.47 1050.79 309.79 1063.71
  Q 326.41 1079.81 349.27 1099.63
  C 346.63 1121.25 348.97 1141.95 352.52 1163.35
  Q 342.02 1155.48 331.65 1147.66
  Q 325.06 1142.69 320.79 1138.94
  Q 318.46 1136.88 310.18 1129.77
  C 306.92 1126.96 304.11 1124.04 300.71 1121.45
  Q 298.82 1120.01 296.81 1118.09
  Q 292.26 1113.73 283.70 1106.04
  Q 279.68 1102.43 272.09 1094.30
  Q 271.32 1093.47 262.43 1084.41
  Q 257.76 1079.65 253.56 1074.50
  C 252.25 1051.59 252.87 1028.31 258.73 1006.03
  Z"
/>
<path fill="#be9a48" d="
  M 1227.01 1084.35
  Q 1211.67 1100.32 1201.87 1109.37
  Q 1168.34 1140.36 1131.25 1167.00
  Q 1128.57 1168.92 1125.38 1170.87
  Q 1127.57 1142.05 1122.22 1113.96
  Q 1137.47 1101.84 1146.15 1094.40
  Q 1186.39 1059.88 1220.28 1019.24
  A 0.68 0.67 -59.9 0 1 1221.01 1019.04
  C 1227.81 1021.37 1229.48 1027.92 1230.23 1034.26
  C 1232.24 1051.24 1231.82 1067.77 1227.01 1084.35
  Z"
/>
<path fill="#ddbe65" d="
  M 1325.78 1100.88
  Q 1327.42 1126.35 1324.22 1151.54
  Q 1316.37 1148.30 1313.63 1147.87
  Q 1288.43 1143.89 1269.80 1161.37
  Q 1266.04 1133.86 1264.79 1106.46
  Q 1277.71 1100.38 1291.86 1098.25
  C 1296.85 1097.49 1302.24 1097.77 1307.50 1097.74
  Q 1311.54 1097.72 1325.78 1100.88
  Z"
/>
<path fill="#ddbe65" d="
  M 349.27 1099.63
  Q 351.88 1101.65 354.51 1103.70
  Q 363.63 1110.80 372.72 1117.94
  C 380.23 1123.83 388.62 1129.41 396.57 1135.22
  Q 392.15 1164.05 397.63 1192.97
  Q 388.32 1187.38 379.43 1181.89
  Q 377.39 1180.63 375.43 1179.26
  Q 363.91 1171.21 352.52 1163.35
  C 348.97 1141.95 346.63 1121.25 349.27 1099.63
  Z"
/>
<path fill="#cfad59" d="
  M 1348.76 1110.01
  Q 1348.06 1141.12 1345.76 1172.30
  C 1339.90 1163.17 1334.21 1156.37 1324.22 1151.54
  Q 1327.42 1126.35 1325.78 1100.88
  C 1332.40 1102.95 1341.91 1105.88 1348.76 1110.01
  Z"
/>
<path fill="#be9a48" d="
  M 1264.79 1106.46
  Q 1266.04 1133.86 1269.80 1161.37
  Q 1264.29 1167.10 1261.83 1172.36
  Q 1255.99 1184.85 1257.17 1200.35
  C 1258.28 1214.75 1266.84 1226.04 1278.08 1234.47
  Q 1276.05 1260.44 1277.48 1286.55
  Q 1263.79 1282.80 1253.01 1275.99
  Q 1246.67 1271.98 1238.22 1265.28
  Q 1238.36 1254.13 1238.61 1243.60
  Q 1239.31 1213.90 1240.33 1184.21
  Q 1240.97 1165.77 1239.41 1123.00
  Q 1244.96 1117.62 1247.39 1116.14
  C 1252.95 1112.74 1258.59 1108.61 1264.79 1106.46
  Z"
/>
<path fill="#be9a48" d="
  M 1345.99 1280.91
  Q 1349.26 1249.24 1345.57 1217.67
  Q 1356.90 1194.99 1345.76 1172.30
  Q 1348.06 1141.12 1348.76 1110.01
  Q 1372.85 1122.60 1385.74 1144.50
  Q 1392.87 1156.61 1397.75 1174.71
  C 1399.05 1179.57 1399.78 1186.36 1400.02 1190.25
  Q 1400.79 1202.62 1398.00 1213.02
  C 1396.17 1219.86 1392.92 1231.60 1388.95 1238.76
  Q 1380.94 1253.23 1373.79 1260.83
  Q 1370.80 1264.01 1361.07 1271.55
  Q 1353.96 1277.07 1345.99 1280.91
  Z"
/>
<path fill="#ae853b" d="
  M 1239.41 1123.00
  Q 1240.97 1165.77 1240.33 1184.21
  Q 1239.31 1213.90 1238.61 1243.60
  Q 1238.36 1254.13 1238.22 1265.28
  Q 1226.47 1253.15 1219.21 1239.80
  C 1208.00 1219.19 1204.17 1193.55 1211.18 1170.59
  Q 1214.23 1160.61 1216.49 1155.48
  Q 1220.52 1146.35 1222.97 1142.97
  C 1229.13 1134.51 1232.15 1129.81 1239.41 1123.00
  Z"
/>
<path fill="#e8ce6f" d="
  M 396.57 1135.22
  L 418.04 1148.80
  C 433.34 1158.37 451.34 1168.65 464.90 1175.58
  Q 472.35 1179.39 489.43 1187.20
  L 527.87 1203.01
  A 0.96 0.78 -84.8 0 1 528.38 1203.77
  Q 528.41 1204.08 526.61 1223.09
  Q 525.12 1238.91 520.26 1251.13
  C 504.75 1245.68 490.23 1239.46 474.52 1232.81
  Q 468.64 1230.32 464.35 1228.16
  C 459.73 1225.84 455.32 1224.43 450.80 1221.99
  C 444.26 1218.46 437.99 1215.64 431.66 1212.00
  Q 423.39 1207.26 409.97 1200.29
  Q 405.12 1197.77 397.63 1192.97
  Q 392.15 1164.05 396.57 1135.22
  Z"
/>
<path fill="#ddbe65" d="
  M 1345.99 1280.91
  Q 1335.34 1286.98 1321.69 1288.89
  Q 1298.40 1292.16 1277.48 1286.55
  Q 1276.05 1260.44 1278.08 1234.47
  C 1285.68 1238.80 1294.63 1242.42 1303.50 1241.81
  C 1310.69 1241.32 1316.65 1240.74 1323.05 1238.11
  Q 1327.06 1236.46 1332.36 1232.01
  Q 1339.95 1225.62 1345.57 1217.67
  Q 1349.26 1249.24 1345.99 1280.91
  Z"
/>
<path fill="#cfad59" d="
  M 633.01 1231.52
  Q 647.77 1234.24 654.99 1235.29
  Q 705.73 1242.71 757.00 1242.13
  Q 770.13 1241.98 782.79 1241.00
  L 794.79 1240.39
  A 0.53 0.52 84.8 0 1 795.34 1240.86
  Q 796.17 1247.85 798.35 1259.96
  Q 801.19 1275.81 812.97 1286.55
  C 809.04 1286.94 805.08 1287.54 801.33 1287.72
  Q 778.74 1288.85 776.75 1288.95
  Q 750.58 1290.33 724.41 1289.16
  Q 720.59 1288.99 698.07 1288.02
  Q 686.16 1287.50 671.84 1285.60
  Q 648.25 1282.48 624.70 1278.59
  C 629.52 1268.87 633.19 1259.24 633.64 1248.43
  Q 633.97 1240.62 633.01 1231.52
  Z"
/>
</svg>
